<svg width="20" height="20" viewBox="0 0 20 20" fill="none" xmlns="http://www.w3.org/2000/svg">
<path d="M13.3333 3.33317H14.9999C15.4419 3.33317 15.8659 3.50877 16.1784 3.82133C16.491 4.13389 16.6666 4.55781 16.6666 4.99984V16.6665C16.6666 17.1085 16.491 17.5325 16.1784 17.845C15.8659 18.1576 15.4419 18.3332 14.9999 18.3332H10.4166M3.33325 11.2498V4.99984C3.33325 4.55781 3.50885 4.13389 3.82141 3.82133C4.13397 3.50877 4.55789 3.33317 4.99992 3.33317H6.66659M7.49992 1.6665H12.4999C12.9602 1.6665 13.3333 2.0396 13.3333 2.49984V4.1665C13.3333 4.62674 12.9602 4.99984 12.4999 4.99984H7.49992C7.03968 4.99984 6.66659 4.62674 6.66659 4.1665V2.49984C6.66659 2.0396 7.03968 1.6665 7.49992 1.6665ZM8.68325 10.5082C8.84576 10.3456 9.03869 10.2167 9.25102 10.1288C9.46335 10.0408 9.69093 9.99557 9.92075 9.99557C10.1506 9.99557 10.3782 10.0408 10.5905 10.1288C10.8028 10.2167 10.9957 10.3456 11.1583 10.5082C11.3208 10.6707 11.4497 10.8636 11.5376 11.0759C11.6256 11.2883 11.6708 11.5158 11.6708 11.7457C11.6708 11.9755 11.6256 12.2031 11.5376 12.4154C11.4497 12.6277 11.3208 12.8206 11.1583 12.9832L6.62492 17.4998L3.33325 18.3332L4.15825 15.0415L8.68325 10.5082Z" stroke="#4B5563" stroke-width="1.2" stroke-linecap="round" stroke-linejoin="round"/>
</svg>
